<?xml version="1.0" standalone="no"?>
<!DOCTYPE svg PUBLIC "-//W3C//DTD SVG 20010904//EN"
 "http://www.w3.org/TR/2001/REC-SVG-20010904/DTD/svg10.dtd">
<svg version="1.0" xmlns="http://www.w3.org/2000/svg"
 width="512.000000pt" height="512.000000pt" viewBox="0 0 512.000000 512.000000"
 preserveAspectRatio="xMidYMid meet">

<g transform="translate(0.000000,512.000000) scale(0.100000,-0.100000)"
fill="#a7aaad" stroke="none">
<path d="M735 5095 c-179 -39 -314 -115 -451 -250 -109 -108 -165 -192 -214
-317 -63 -163 -60 -56 -60 -1968 0 -1544 2 -1749 16 -1817 36 -176 108 -314
233 -445 129 -136 275 -223 450 -267 85 -21 87 -21 1852 -21 l1766 0 96 24
c303 77 543 300 648 602 l34 99 3 1798 c3 1974 6 1843 -57 2002 -87 217 -242
382 -455 485 -193 93 13 84 -2011 87 -1461 1 -1801 -1 -1850 -12z m1468 -507
c64 -19 122 -82 136 -146 25 -121 5 -192 -79 -284 -68 -75 -80 -100 -80 -169
0 -53 16 -93 48 -122 11 -10 26 -32 32 -48 11 -26 10 -32 -6 -50 -45 -50 -60
-52 -379 -59 -326 -6 -330 -7 -387 -67 -15 -15 -31 -40 -37 -55 -6 -16 -13
-183 -16 -400 -3 -205 -8 -388 -11 -406 -8 -52 -75 -118 -139 -138 -70 -22
-103 -9 -155 61 -66 89 -153 124 -255 103 -44 -9 -59 -19 -125 -89 -70 -74
-78 -79 -116 -79 -36 0 -47 6 -77 39 -20 22 -39 55 -42 73 -3 18 -5 269 -3
558 4 506 5 528 26 605 91 328 344 581 665 665 65 17 115 19 516 19 322 1 455
-2 484 -11z m1713 -8 c358 -91 635 -407 684 -781 7 -55 10 -252 8 -569 -3
-484 -3 -485 -26 -521 -30 -49 -67 -72 -115 -72 -37 0 -45 6 -100 67 -76 85
-121 109 -207 109 -112 0 -194 -56 -246 -168 -43 -92 -26 -187 51 -281 48 -59
105 -84 188 -84 89 0 122 15 206 94 55 52 77 66 101 66 59 0 117 -46 139 -109
15 -45 15 -909 0 -1018 -48 -348 -292 -642 -629 -756 l-95 -32 -575 -3 c-414
-2 -586 0 -615 8 -82 24 -145 94 -145 163 0 50 18 81 80 142 38 37 55 63 66
103 20 69 11 106 -37 153 -44 43 -48 65 -19 102 29 36 66 45 225 51 210 8 320
45 458 155 176 140 277 353 264 556 -4 50 -13 111 -21 136 -43 139 -155 279
-268 339 -144 75 -157 102 -80 163 109 89 188 211 216 334 54 242 -36 502
-224 644 -124 93 -251 139 -385 139 -104 1 -155 13 -182 45 -30 34 -29 69 1
92 94 74 86 202 -20 315 -62 66 -78 107 -78 198 1 123 43 191 143 226 28 10
165 13 597 14 530 0 565 -1 640 -20z m-1183 -1290 c165 -62 241 -283 151 -437
-33 -57 -81 -104 -130 -129 -36 -17 -66 -19 -351 -22 -267 -2 -317 -1 -343 13
-55 29 -60 52 -60 287 0 321 -17 307 392 308 264 0 292 -2 341 -20z m-2037
-863 c12 -7 43 -36 69 -65 61 -68 90 -82 165 -82 80 0 118 17 191 87 60 57 62
58 119 58 49 0 65 -5 101 -30 23 -16 52 -48 64 -71 21 -40 22 -55 28 -476 5
-370 8 -441 22 -474 20 -49 49 -80 100 -107 38 -21 57 -22 340 -27 206 -3 307
-9 321 -17 55 -32 61 -79 16 -126 -38 -40 -52 -69 -52 -103 0 -59 25 -109 87
-174 73 -78 86 -105 72 -153 -13 -48 -42 -82 -97 -115 l-47 -27 -445 -3 -445
-3 -100 25 c-315 80 -562 322 -662 651 l-28 90 0 525 c0 487 1 527 18 558 33
61 111 89 163 59z m2078 -178 c57 -20 140 -100 172 -167 22 -46 28 -72 28
-132 1 -95 -32 -168 -105 -234 -84 -76 -108 -80 -459 -80 -338 0 -345 1 -387
63 -22 33 -23 41 -23 255 0 335 -22 318 420 313 232 -3 325 -8 354 -18z"/>
</g>
</svg>
